<svg xmlns="http://www.w3.org/2000/svg" width="121" height="488" viewBox="0 0 121 488" fill="none">
<path d="M50.6524 1C75.9657 37.5393 108.35 179.722 45.0285 238.614C35.1668 247.786 19.8826 254.12 9.27609 245.821C3.92418 241.633 0.224422 234.346 1.57119 222.225C4.41653 196.617 62.9834 202.071 81.9524 207.999C92.1482 212.741 113.82 227.916 118.942 250.679C123.133 269.306 105.38 292.698 90.8646 307.209C85.1706 312.901 78.2427 317.082 71.3242 321.2C47.8448 335.177 14.6413 362.39 13.6642 393.657C12.5261 430.077 32.1589 459.1 42.1176 469.059" stroke="#FAAFD4" stroke-linecap="round" stroke-linejoin="round" stroke-dasharray="10 6"/>
<path d="M53.8417 480.534C53.9743 480.937 53.5777 481.311 53.1835 481.156L35.3685 474.137C34.8891 473.948 34.9743 473.245 35.485 473.176L44.9665 471.897L46.8772 462.38C46.9782 461.877 47.6816 461.834 47.8423 462.322L53.8417 480.534Z" fill="#FAAFD4"/>
</svg>