<svg xmlns="http://www.w3.org/2000/svg" width="406" height="184" viewBox="0 0 406 184" fill="none">
<path d="M171.487 72.6286L220.991 142.43V74.8971H211.993V72.6286H234.482V74.8862H225.484V180.679H220.991L158.639 91.2895C158.293 90.7955 157.799 90.4246 157.228 90.2306C156.657 90.0367 156.039 90.0298 155.464 90.211C154.889 90.3922 154.386 90.752 154.029 91.2381C153.673 91.7243 153.48 92.3116 153.48 92.9146V178.421H162.478V180.602H139.989V178.421H148.987V74.8971H139.989V72.6286H171.487ZM236.773 146.891C236.969 148.112 237.329 149.813 237.863 151.788C238.432 153.969 239.161 156.105 240.045 158.179C241.075 160.6 242.293 162.938 243.687 165.17C245.212 167.603 247.045 169.828 249.14 171.79C251.145 173.864 253.424 175.655 255.913 177.112C257.879 178.238 259.969 179.131 262.141 179.773C269.197 181.769 279.264 181.497 285.95 178.247C289.078 176.814 291.855 174.715 294.086 172.095C295.965 169.848 297.384 167.254 298.263 164.461C299.004 162.175 299.412 159.795 299.474 157.393C299.612 154.097 298.678 150.844 296.813 148.123C294.94 145.593 292.525 143.514 289.745 142.037C286.556 140.314 283.193 138.935 279.711 137.925L268.15 134.512C264.224 133.354 260.365 131.981 256.59 130.4C252.953 128.897 249.569 126.845 246.556 124.314C243.574 121.786 241.165 118.652 239.488 115.12C237.579 110.817 236.67 106.137 236.827 101.432C236.825 97.3692 237.762 93.3603 239.565 89.719C241.424 85.9263 244.019 82.5415 247.199 79.7614C250.632 76.7551 254.572 74.3841 258.836 72.7594C266.345 69.9694 274.49 69.3644 282.329 71.0144C284.859 71.6252 287.095 72.2578 289.014 72.9121C290.934 73.5665 292.646 74.21 294.119 74.8208C295.389 75.3794 296.756 75.6868 298.143 75.726C299.133 75.8469 300.134 75.6026 300.957 75.0389C301.589 74.2994 302.077 73.4487 302.397 72.5304H304.785V99.6438C304.251 99.6711 303.716 99.6711 303.182 99.6438C302.211 99.5457 302.091 99.1312 301.96 98.1933C301.088 92.0748 298.143 86.8397 294.195 82.1826C291.836 79.1859 288.913 76.681 285.59 74.8099C282.482 73.1521 278.959 72.9012 275.512 72.7376C268.052 72.3886 260.57 73.283 254.714 78.2999C252.702 79.9832 251.048 82.0525 249.849 84.3857C248.774 86.4868 248.203 88.8094 248.181 91.1695C248.057 94.3442 249.049 97.462 250.984 99.9819C253.025 102.452 255.534 104.494 258.367 105.991C261.682 107.795 265.172 109.257 268.783 110.354C272.688 111.575 276.687 112.844 280.78 114.16C284.874 115.476 288.873 116.931 292.777 118.523C296.523 120.009 300.032 122.033 303.193 124.532C306.219 126.948 308.726 129.949 310.566 133.356C312.557 137.31 313.525 141.702 313.379 146.127C313.402 151.016 312.368 155.853 310.348 160.305C308.317 164.759 305.392 168.746 301.753 172.019C297.868 175.472 293.38 178.178 288.513 180.003C280.055 183.133 270.892 183.843 262.054 182.053C258.971 181.442 256.084 180.81 253.394 180.155C250.7 179.49 248.323 178.857 246.239 178.247C244.739 177.75 243.181 177.446 241.604 177.341C240.545 177.255 239.484 177.49 238.561 178.018C237.757 178.784 237.179 179.758 236.893 180.831H234.45V147.021L236.773 146.891Z" fill="#FAAFD4"/>
<path d="M398.738 72.6271V97.3847H396.491C395.979 95.6615 396.491 86.1402 391.987 81.6358C385.236 74.8956 374.024 74.7647 369.083 74.7647L342.526 74.8956V124.389H350.161C354.916 124.389 359.9 124.193 364.001 121.39C368.102 118.587 372.159 115.468 374.002 110.887C375.059 107.969 375.816 104.95 376.26 101.878H378.496V146.878H376.249C376.14 146.878 375.017 142.81 374.875 142.406C374.315 140.816 373.652 139.264 372.89 137.76C370.414 132.951 366.629 128.61 361.198 127.312C358.468 126.758 355.683 126.524 352.898 126.614H342.504V178.42H369.302C373.959 178.42 387.493 178.42 394.245 171.668C404.431 161.482 403.242 151.415 403.242 146.922H405.5V180.601H313.242V178.42H322.295L322.24 74.8956H313.242V72.6271H398.738ZM151.249 178.42V180.601H113V178.42H121.354C119.976 174.044 118.221 169.796 116.108 165.724C109.695 153.389 97.3602 137.891 75.8963 137.891C53.6907 137.891 41.2465 154.48 35.0189 166.99C33.1857 170.675 31.6396 174.496 30.3946 178.42H38.7489V180.601H0.5V178.42H10.5012L25.5848 137.891H12.1154L12.9443 135.645H104.864L88.0679 90.6336L75.7545 57.6852L71.2501 45.6881L65.6551 30.5391L76.8451 0.644531H77.0196L87.0645 27.5398L93.8156 45.6336L110.601 90.6227L127.397 135.634L128.225 137.88L143.309 178.42H151.249ZM382.989 40.2349L378.256 35.5124L362.507 57.5653L364.077 59.1358L382.989 40.2349Z" fill="#FAAFD4"/>
</svg>